<?xml version="1.0" encoding="UTF-8" standalone="no"?>
<svg
   xmlns:dc="http://purl.org/dc/elements/1.1/"
   xmlns:cc="http://creativecommons.org/ns#"
   xmlns:rdf="http://www.w3.org/1999/02/22-rdf-syntax-ns#"
   xmlns:svg="http://www.w3.org/2000/svg"
   xmlns="http://www.w3.org/2000/svg"
   xmlns:sodipodi="http://sodipodi.sourceforge.net/DTD/sodipodi-0.dtd"
   xmlns:inkscape="http://www.inkscape.org/namespaces/inkscape"
   version="1.1"
   id="Layer_1"
   x="0px"
   y="0px"
   width="430"
   height="235"
   viewBox="0 0 430.000000000001 234.9999999999995"
   enable-background="new 0 0 578 462"
   xml:space="preserve"
   inkscape:version="0.91 r13725"
   sodipodi:docname="Funny-Car.svg"><metadata
     id="metadata8"><rdf:RDF><cc:Work
         rdf:about=""><dc:format>image/svg+xml</dc:format><dc:type
           rdf:resource="http://purl.org/dc/dcmitype/StillImage" /><dc:date>2016</dc:date><dc:creator><cc:Agent><dc:title>Lazur</dc:title></cc:Agent></dc:creator><dc:description>Original raster images of this series were uploaded by NicholasJudy456 to openclipart embedded in svg-s (416 in total).  This is one of the refixes upon request by the original author.</dc:description><dc:contributor><cc:Agent><dc:title /></cc:Agent></dc:contributor><dc:title></dc:title></cc:Work></rdf:RDF></metadata><defs
     id="defs6" /><sodipodi:namedview
     pagecolor="#ffffff"
     bordercolor="#666666"
     borderopacity="1"
     objecttolerance="10"
     gridtolerance="10"
     guidetolerance="10"
     inkscape:pageopacity="0"
     inkscape:pageshadow="2"
     inkscape:window-width="1366"
     inkscape:window-height="705"
     id="namedview4"
     showgrid="false"
     borderlayer="true"
     inkscape:showpageshadow="false"
     inkscape:zoom="2.361702127659575"
     inkscape:cx="215"
     inkscape:cy="117.5"
     inkscape:window-x="-8"
     inkscape:window-y="-8"
     inkscape:window-maximized="1"
     inkscape:current-layer="Layer_1"
     fit-margin-top="0"
     fit-margin-left="0"
     fit-margin-right="0"
     fit-margin-bottom="0"
     showguides="true"
     inkscape:guide-bbox="true"
     showborder="true" /><path
     style="fill:#000000"
     d="m 76.4800477238802,184.6160063586127 -1.01516771285857,6.7696233357098 -0.65766578810147,4.3856296943224 1.20397213821022,2.2496425183225 1.20397213821028,2.2496425183226 -2.31967773683517,4.9526084960834 -2.31967773683516,4.9526084960834 -3.55685740049563,1.8145732457878 -3.55685740049563,1.8145732457878 -4.17772821755798,-3.6524539545162 -4.17772821755802,-3.6524539545162 -0.65005446868274,-4.6379348894731 -0.65005446868277,-4.637934889473 5.04443862375097,-2.8356175064165 5.04443862375091,-2.8356175064164 0.5713519783652,-2.2764476041105 1.18563010022241,-4.7239265867868 z"
     id="path5754" /><path
     inkscape:connector-curvature="0"
     id="path5744"
     d="m 316.5284264773556,31.44328335408025 1.0402321143093,10.55671664591975 0.6897622664695,7 2.3707895709328,0 2.3707895709328,0 0.011005663881,1.75 0.6490486047936,5.6121918309606 0.6380429409126,3.8621918309606 -3.0543927036873,-0.67085717340612 -3.0543927036872,-0.67085717340612 -0.701700040261,8.42381647665501 -1.2897393339743,15.48315067515256 -29.1978724279774,3.00087682005943 0,-9.27146125876106 0,-3.5190520282149 2.2970522345143,0 2.2970522345143,0 3.9529477654857,-4.25 3.9529477654857,-4.25 -4.0421626281333,3.75 -4.0421626281333,3.75 -1.7078373718667,0 -1.7078373718667,0 0,-2.9809479717851 0,-2.98094797178507 -2.25,-0.50222237339469 -11.141186573367,-1.99357193491528 -9.1872363447357,-1.78739933288918 11.856723547273,-13.52548009329964 15.4651715520059,-16.83528558457815 z"
     style="fill:#fec80d"
     sodipodi:nodetypes="ccccccccccccccccccccccccccccccc" /><path
     inkscape:connector-curvature="0"
     id="path5742"
     d="m 299.25,34.81091553042917 -23.3956042159581,-0.54678892948753 -5.6456042159581,-0.35770445991668 -0.5907411007495,-2.20321107051251 -0.6043957840419,-3.45321107051248 -0.013654683292,-1.25 11.4326123294429,0 11.4326123294429,0 0.663749389674,-2.09128914336523 0.663749389674,-2.09128914336523 3.3715196499867,-1.40871085663477 3.3715196499866,-1.40871085663477 4.946949955437,0 4.946949955437,0 3.5851686754594,4.88397704718057 3.5851686754594,4.88397704718059 0,2.61602295281941 0,2.61602295281943 z"
     style="fill:#ec1b23"
     sodipodi:nodetypes="ccccccccccccccccccc" /><path
     inkscape:connector-curvature="0"
     id="path5740"
     d="m 301.9999999999995,187.0000000000017 -121.2499999999995,-0.1382385601693 -121.25,-0.1382385601675 -20.92974125392224,-1.3748360270881 -21.23085969979427,-1.67595447296 7.19496185187995,-21.1688126773685 7.77852155333497,-21.15013548708 16.23477940204231,12.1764865288859 15.95233814645928,12.4589277844692 5.59100600169441,0.00540073574 20.6790229988222,-0.6476583763884 15.08801699712778,-0.6530591121268 0.6669872322928,-7.5969408878732 0.6669872322928,-7.5969408878733 5.5587177327783,-9.8356364964423 5.5587177327782,-9.8356364964424 6.3452720361068,-3.1289951626027 6.3452720361067,-3.1289951626028 0,-11.165917251772 0,-11.1659172517721 10.5708242578172,-0.720508696319 10.5708242578171,-0.72050869631893 -0.6850646742615,-4.14894239286383 -0.8382907331861,-4.33307553489946 -13.6357595835557,2.7196162251398 -14.1644393139928,2.93413314203569 -2.7912240400133,-2.93188055020049 -2.1093182506516,-2.96226432506063 4.9309369684303,-2.4986948593056 4.9309369684303,-2.4986948593055 16.0652892563355,-4.03904081563387 16.4816338530918,-4.03904081563377 1.1352741697004,11.09242531022909 0.7189295729441,11.0924253102291 6.9097236455472,-0.69391672431102 6.9097236455471,-0.69391672431101 0,5.10149141408184 0,5.1014914140819 17.4047125931708,0 17.4047125931708,0 0.7293024778921,-15.12381710822383 0.7293024778921,-15.12381710822389 36.6550941010494,0.73267669304528 36.6550941010494,0.73267669304526 7.9608908278877,-1.57677454116354 18.4608908278877,-2.69607468140609 10.5,-1.11930014024253 41.7185652595109,0.72317200592711 41.718565259511,0.72317200592704 1.5880493853904,5.61404309065769 2.0489387697437,7.20687365425553 0.4608893843532,1.5928305635979 -6.2054033675502,4.4071694364021 -7.0004209887376,4.95562853110627 -0.7950176211871,0.548459094704 -1.9996576265091,29.8856329859751 -1.6864009024647,30.1988897100103 6.0804638765088,-0.7528694568219 6.214345099781,-0.6189882335539 -0.6927244957115,4.9739421709494 -1.1398624430279,4.5268042236462 -4.3458092238083,1.0942873767104 -4.9138911873175,2.0134633020644 -0.5680819635095,0.9191759253539 2.758726392512,0.5266368367076 9.892223671651,1.6520726214902 7.1334972791388,1.1254357847826 0.6496680263114,4.0628006428609 0.3665027208612,4.3213271616112 -26.8710009689239,0.9846948958064 -26.5878356634735,0.7261683770561 z"
     style="fill:#21b04b"
     sodipodi:nodetypes="cccccccccccccccccccccccccccccccccccccccccccccccccccccccccccccccccccccccc" /><path
     style="fill:#000000"
     d="m 332,216.5197574183972 -5.5,0.5637593361586 -7.6225787932523,-5.0938547788232 -7.6225787932522,-5.0938547788232 -4.6274212067478,-10.041970440848 -4.6274212067477,-10.041970440848 0.021962000491,-3.1559331576067 0.021962000491,-3.1559331576067 1.8210579035767,-4.0085774555573 1.8210579035766,-4.0085774555572 3.6614353766634,-3.2147828396362 3.6614353766636,-3.2147828396361 5.6764474299041,-1.6501880357687 5.6764474299041,-1.6501880357686 5.983194851297,0.6253676586099 5.983194851297,0.62536765861 5.2059133083565,2.3833459534863 5.2059133083566,2.3833459534863 3.9419129103661,3.5612814983219 3.9419129103663,3.5612814983219 2.6583174335409,4.8842048640827 2.658317433541,4.8842048640827 -3.8772721954529,10.1728511751281 -6.45627685264,14.5735898866532 -2.579004657187,4.4007387115253 -4.7639643615559,0.5737575109271 z"
     id="path5756" /><path
     style="fill:#000000"
     d="m 292.2505259311863,48.74982468960457 -1.2494740688136,0.41649135627122 -0.5850994617171,-1.52474475613971 -0.2368308881542,-3.33315802293788 0.3482685735629,-1.8084132667982 1.4863049569679,0 1.4863049569678,0 0,2.91666666666669 0,2.91666666666665 z"
     id="path5752" /><path
     style="fill:#000000"
     d="m 301.2505259311863,47.74982468960457 -1.2494740688136,0.41649135627122 -0.5850994617171,-1.52474475613971 -0.2368308881542,-3.33315802293788 0.3482685735629,-1.8084132667982 1.4863049569679,0 1.4863049569678,0 0,2.91666666666669 0,2.91666666666665 z"
     id="path5738" /></svg>